<?xml version="1.0" standalone="no"?>
<!DOCTYPE svg PUBLIC "-//W3C//DTD SVG 20010904//EN"
 "http://www.w3.org/TR/2001/REC-SVG-20010904/DTD/svg10.dtd">
<svg version="1.0" xmlns="http://www.w3.org/2000/svg"
 width="2000.000000pt" height="2000.000000pt" viewBox="0 0 2000.000000 2000.000000"
 preserveAspectRatio="xMidYMid meet">

<g transform="translate(0.000000,2000.000000) scale(0.100000,-0.100000)"
fill="#000000" stroke="none">
<path d="M3730 13240 l0 -1260 500 0 500 0 0 -1980 0 -1980 -500 0 -500 0 0
-1260 0 -1260 2350 0 2350 0 0 1260 0 1260 -500 0 -500 0 0 1282 c0 751 4
1278 9 1273 7 -8 362 -496 1119 -1540 80 -110 169 -231 197 -270 29 -38 137
-187 240 -330 761 -1050 996 -1370 1005 -1370 5 0 169 221 365 490 196 270
396 544 444 610 48 66 460 633 915 1260 456 627 832 1144 837 1150 5 5 9 -527
9 -1273 l0 -1282 -500 0 -500 0 0 -1260 0 -1260 2350 0 2350 0 0 1260 0 1260
-500 0 -500 0 0 1980 0 1980 500 0 500 0 0 1260 0 1260 -1807 0 -1808 -1 -251
-342 c-367 -500 -1260 -1714 -1304 -1772 -21 -27 -165 -223 -320 -435 -625
-850 -770 -1045 -779 -1048 -4 -1 -47 50 -94 115 -48 65 -150 204 -227 308
-77 105 -221 300 -320 435 -99 135 -242 329 -317 432 -868 1176 -1432 1944
-1572 2135 l-126 173 -1807 0 -1808 0 0 -1260z"/>
</g>
</svg>
